<svg width="179" height="25" viewBox="0 0 179 25" fill="none" xmlns="http://www.w3.org/2000/svg">
<path d="M18.663 0.904999C19.609 0.904999 20.5 1.092 21.336 1.466C22.194 1.818 22.931 2.313 23.547 2.951C24.185 3.567 24.68 4.304 25.032 5.162C25.406 5.998 25.593 6.889 25.593 7.835C25.593 8.781 25.417 9.672 25.065 10.508C24.713 11.322 24.229 12.048 23.613 12.686C24.229 13.302 24.713 14.028 25.065 14.864C25.417 15.678 25.593 16.558 25.593 17.504V17.537C25.593 18.505 25.406 19.407 25.032 20.243C24.68 21.079 24.185 21.816 23.547 22.454C22.931 23.07 22.194 23.565 21.336 23.939C20.5 24.291 19.609 24.467 18.663 24.467H2.889C2.317 24.467 1.822 24.269 1.404 23.873C1.008 23.455 0.81 22.949 0.81 22.355C0.81 21.783 1.008 21.299 1.404 20.903C1.822 20.485 2.317 20.276 2.889 20.276H18.663C19.411 20.276 20.049 20.012 20.577 19.484C21.105 18.956 21.369 18.307 21.369 17.537V17.504C21.369 16.734 21.105 16.085 20.577 15.557C20.049 15.029 19.411 14.765 18.663 14.765H2.889C2.317 14.765 1.822 14.567 1.404 14.171C1.008 13.753 0.81 13.258 0.81 12.686C0.81 12.092 1.008 11.597 1.404 11.201C1.822 10.783 2.317 10.574 2.889 10.574H18.663C19.411 10.574 20.049 10.31 20.577 9.782C21.105 9.254 21.369 8.605 21.369 7.835C21.369 7.087 21.105 6.449 20.577 5.921C20.049 5.371 19.411 5.096 18.663 5.096H2.889C2.317 5.096 1.822 4.898 1.404 4.502C1.008 4.084 0.81 3.589 0.81 3.017C0.81 2.445 1.008 1.95 1.404 1.532C1.822 1.114 2.317 0.904999 2.889 0.904999H18.663ZM34.3916 14.798V16.349C34.3916 16.899 34.4906 17.416 34.6886 17.9C34.9086 18.362 35.1946 18.769 35.5466 19.121C35.8986 19.473 36.3166 19.759 36.8006 19.979C37.2846 20.177 37.7906 20.276 38.3186 20.276H51.1556C51.7276 20.276 52.2116 20.485 52.6076 20.903C53.0256 21.299 53.2346 21.783 53.2346 22.355C53.2346 22.949 53.0256 23.455 52.6076 23.873C52.2116 24.269 51.7276 24.467 51.1556 24.467H38.3186C37.2186 24.467 36.1736 24.269 35.1836 23.873C34.2156 23.455 33.3466 22.861 32.5766 22.091C31.8066 21.321 31.2126 20.452 30.7946 19.484C30.3986 18.494 30.2006 17.449 30.2006 16.349V9.089C30.2006 7.989 30.4096 6.944 30.8276 5.954C31.2456 4.964 31.8396 4.084 32.6096 3.314C33.3796 2.544 34.2596 1.95 35.2496 1.532C36.2396 1.114 37.2846 0.904999 38.3846 0.904999H48.0536C48.9996 0.904999 49.8906 1.092 50.7266 1.466C51.5846 1.818 52.3216 2.313 52.9376 2.951C53.5756 3.589 54.0706 4.337 54.4226 5.195C54.7966 6.031 54.9836 6.922 54.9836 7.868C54.9836 8.814 54.7966 9.716 54.4226 10.574C54.0706 11.41 53.5756 12.147 52.9376 12.785C52.3216 13.401 51.5846 13.896 50.7266 14.27C49.8906 14.622 48.9996 14.798 48.0536 14.798H34.3916ZM34.3916 10.607H48.0536C48.8236 10.607 49.4726 10.343 50.0006 9.815C50.5286 9.265 50.7926 8.616 50.7926 7.868C50.7926 7.098 50.5286 6.449 50.0006 5.921C49.4726 5.371 48.8236 5.096 48.0536 5.096H38.3846C37.8346 5.096 37.3176 5.206 36.8336 5.426C36.3496 5.624 35.9206 5.91 35.5466 6.284C35.1946 6.636 34.9086 7.054 34.6886 7.538C34.4906 8.022 34.3916 8.539 34.3916 9.089V10.607ZM76.123 10.607C77.069 10.607 77.96 10.794 78.796 11.168C79.654 11.52 80.391 12.015 81.007 12.653C81.645 13.269 82.14 14.006 82.492 14.864C82.866 15.7 83.053 16.591 83.053 17.537C83.053 18.505 82.866 19.407 82.492 20.243C82.14 21.079 81.645 21.816 81.007 22.454C80.391 23.07 79.654 23.565 78.796 23.939C77.96 24.291 77.069 24.467 76.123 24.467H61.768C61.196 24.467 60.701 24.269 60.283 23.873C59.865 23.455 59.656 22.949 59.656 22.355C59.656 21.783 59.865 21.299 60.283 20.903C60.701 20.485 61.196 20.276 61.768 20.276H76.123C76.871 20.276 77.509 20.012 78.037 19.484C78.587 18.956 78.862 18.307 78.862 17.537C78.862 16.767 78.587 16.118 78.037 15.59C77.509 15.062 76.871 14.798 76.123 14.798H65.2C64.232 14.798 63.33 14.622 62.494 14.27C61.658 13.896 60.921 13.401 60.283 12.785C59.667 12.147 59.172 11.41 58.798 10.574C58.446 9.716 58.27 8.814 58.27 7.868C58.27 6.922 58.446 6.031 58.798 5.195C59.172 4.337 59.667 3.589 60.283 2.951C60.921 2.313 61.658 1.818 62.494 1.466C63.33 1.092 64.232 0.904999 65.2 0.904999H79.555C80.127 0.904999 80.611 1.114 81.007 1.532C81.425 1.95 81.634 2.445 81.634 3.017C81.634 3.589 81.425 4.084 81.007 4.502C80.611 4.898 80.127 5.096 79.555 5.096H65.2C64.43 5.096 63.781 5.371 63.253 5.921C62.725 6.449 62.461 7.098 62.461 7.868C62.461 8.616 62.725 9.265 63.253 9.815C63.781 10.343 64.43 10.607 65.2 10.607H76.123ZM107.722 0.904999C108.294 0.904999 108.778 1.114 109.174 1.532C109.592 1.95 109.801 2.445 109.801 3.017C109.801 3.589 109.592 4.084 109.174 4.502C108.778 4.898 108.294 5.096 107.722 5.096H99.505V22.355C99.505 22.949 99.296 23.455 98.878 23.873C98.482 24.269 97.998 24.467 97.426 24.467C96.854 24.467 96.359 24.269 95.941 23.873C95.523 23.455 95.314 22.949 95.314 22.355V5.096H87.13C86.558 5.096 86.063 4.898 85.645 4.502C85.227 4.084 85.018 3.589 85.018 3.017C85.018 2.445 85.227 1.95 85.645 1.532C86.063 1.114 86.558 0.904999 87.13 0.904999H107.722ZM117.278 14.798V16.349C117.278 16.899 117.377 17.416 117.575 17.9C117.795 18.362 118.081 18.769 118.433 19.121C118.785 19.473 119.203 19.759 119.687 19.979C120.171 20.177 120.677 20.276 121.205 20.276H134.042C134.614 20.276 135.098 20.485 135.494 20.903C135.912 21.299 136.121 21.783 136.121 22.355C136.121 22.949 135.912 23.455 135.494 23.873C135.098 24.269 134.614 24.467 134.042 24.467H121.205C120.105 24.467 119.06 24.269 118.07 23.873C117.102 23.455 116.233 22.861 115.463 22.091C114.693 21.321 114.099 20.452 113.681 19.484C113.285 18.494 113.087 17.449 113.087 16.349V9.089C113.087 7.989 113.296 6.944 113.714 5.954C114.132 4.964 114.726 4.084 115.496 3.314C116.266 2.544 117.146 1.95 118.136 1.532C119.126 1.114 120.171 0.904999 121.271 0.904999H130.94C131.886 0.904999 132.777 1.092 133.613 1.466C134.471 1.818 135.208 2.313 135.824 2.951C136.462 3.589 136.957 4.337 137.309 5.195C137.683 6.031 137.87 6.922 137.87 7.868C137.87 8.814 137.683 9.716 137.309 10.574C136.957 11.41 136.462 12.147 135.824 12.785C135.208 13.401 134.471 13.896 133.613 14.27C132.777 14.622 131.886 14.798 130.94 14.798H117.278ZM117.278 10.607H130.94C131.71 10.607 132.359 10.343 132.887 9.815C133.415 9.265 133.679 8.616 133.679 7.868C133.679 7.098 133.415 6.449 132.887 5.921C132.359 5.371 131.71 5.096 130.94 5.096H121.271C120.721 5.096 120.204 5.206 119.72 5.426C119.236 5.624 118.807 5.91 118.433 6.284C118.081 6.636 117.795 7.054 117.575 7.538C117.377 8.022 117.278 8.539 117.278 9.089V10.607ZM166.031 20.276C166.603 20.276 167.087 20.485 167.483 20.903C167.901 21.299 168.11 21.783 168.11 22.355C168.11 22.949 167.901 23.455 167.483 23.873C167.087 24.269 166.603 24.467 166.031 24.467C164.007 24.467 162.137 24.291 160.421 23.939C158.727 23.587 157.231 23.059 155.933 22.355C154.393 21.519 153.183 20.485 152.303 19.253C151.445 17.999 150.928 16.58 150.752 14.996V14.963V14.93V14.864V14.798V14.765C150.752 14.633 150.774 14.457 150.818 14.237C150.818 14.215 150.829 14.193 150.851 14.171V14.138V14.105C150.961 13.797 151.104 13.555 151.28 13.379V13.346H151.313C151.555 13.104 151.786 12.939 152.006 12.851C152.006 12.851 152.017 12.84 152.039 12.818H152.072C152.094 12.818 152.116 12.807 152.138 12.785C152.182 12.785 152.215 12.774 152.237 12.752C152.281 12.73 152.325 12.719 152.369 12.719C152.435 12.719 152.49 12.708 152.534 12.686H152.633H152.666H152.732H152.831V12.653H152.864H158.276C158.804 12.653 159.288 12.554 159.728 12.356C160.19 12.158 160.586 11.894 160.916 11.564C161.268 11.212 161.543 10.816 161.741 10.376C161.939 9.914 162.038 9.419 162.038 8.891C162.038 8.363 161.939 7.879 161.741 7.439C161.543 6.977 161.268 6.57 160.916 6.218C160.586 5.866 160.19 5.591 159.728 5.393C159.288 5.195 158.804 5.096 158.276 5.096H145.67V22.355C145.67 22.949 145.461 23.455 145.043 23.873C144.625 24.269 144.13 24.467 143.558 24.467C142.986 24.467 142.491 24.269 142.073 23.873C141.677 23.455 141.479 22.949 141.479 22.355V3.017C141.479 2.445 141.677 1.95 142.073 1.532C142.491 1.114 142.986 0.904999 143.558 0.904999H158.276C159.354 0.904999 160.366 1.114 161.312 1.532C162.28 1.928 163.149 2.5 163.919 3.248C164.667 4.018 165.239 4.887 165.635 5.855C166.053 6.801 166.262 7.813 166.262 8.891C166.262 9.969 166.053 10.992 165.635 11.96C165.239 12.906 164.667 13.764 163.919 14.534C163.149 15.282 162.28 15.865 161.312 16.283C160.366 16.679 159.354 16.877 158.276 16.877H155.768C156.252 17.559 156.967 18.153 157.913 18.659C159.937 19.737 162.643 20.276 166.031 20.276ZM175.379 19.187C176.105 19.187 176.721 19.451 177.227 19.979C177.755 20.485 178.019 21.101 178.019 21.827C178.019 22.553 177.755 23.18 177.227 23.708C176.721 24.214 176.105 24.467 175.379 24.467C174.653 24.467 174.026 24.214 173.498 23.708C172.992 23.18 172.739 22.553 172.739 21.827C172.739 21.101 172.992 20.485 173.498 19.979C174.026 19.451 174.653 19.187 175.379 19.187Z" fill="#4200FF"/>
</svg>
