<svg id="Layer_1" data-name="Layer 1" xmlns="http://www.w3.org/2000/svg" viewBox="0 0 810.4 201.09"><defs><style>.cls-1{fill:#f49819;}.cls-2{fill:#0d71b9;}.cls-3{fill:#1d1d1b;}.cls-4{fill:#1d71b8;}</style></defs><path class="cls-1" d="M68.65,68.24a40.41,40.41,0,0,0,.61-6.58q0-6.09-3.49-8.34A60.91,60.91,0,0,0,58,50.91q-4.71-3.52-7.13-3.53t-4.71,2.73A226.74,226.74,0,0,0,31,70.17a6,6,0,0,0-1.36,3.21q0,4.34,5-.48l9.42-9.31q3.48-3.53,4.85-3.53c1.22,0,1.67,2.41,1.37,7.22-.64,8.89-3.06,21.57-7.19,37.91l21-15.83C66.17,80.9,67.71,73.83,68.65,68.24Z"/><path class="cls-2" d="M43.1,110.67c-1.08,4.3-2.26,8.79-3.59,13.6q-10,35.79-18.21,51a12.79,12.79,0,0,0-1.67,4.17q0,1.13,3.94,3.37,6.22,3.69,9.87,3.69a5,5,0,0,0,5-3.69,162.26,162.26,0,0,1,13.36-27.28q12-20.22,12.75-22,1.81-4.49-.61-4.49a2.86,2.86,0,0,0-2.13,1.44q-7.74,11.07-12.14,15.25,9.41-30.89,14.39-50.94Z"/><path class="cls-3" d="M79.69,19.86Q70.59,13,67.86,13q-1.53,0-5,4.18-4.41,5.61-18.37,18.45c-.91-.21-1.52-.1-1.82.32a1.93,1.93,0,0,0,.23,1.69,6.86,6.86,0,0,0,1.59,2,19.21,19.21,0,0,0,7.89,3.53q8.06,1.77,16.7-4.49Q82.12,28.86,82.12,24.2A5.52,5.52,0,0,0,79.69,19.86Z"/><path class="cls-1" d="M143.12,186.57V131.18q0-10.47-4.76-15.63t-14.93-5.16q-13.44,0-19.68,7.27t-6.25,24v44.93h-13V100.94H95.07l2.11,11.72h.63a26.38,26.38,0,0,1,11.17-9.8,36.27,36.27,0,0,1,16-3.48q15.47,0,23.28,7.46t7.81,23.87v55.86Z"/><path class="cls-4" d="M221.32,111H199.53v75.55h-13V111H171.25v-5.86l15.31-4.69V95.71q0-31.56,27.58-31.57a56.82,56.82,0,0,1,15.93,2.74l-3.36,10.39a43,43,0,0,0-12.81-2.42q-7.34,0-10.86,4.88t-3.51,15.66v5.55h21.79Z"/><path class="cls-4" d="M310.86,143.68q0,20.94-10.55,32.69t-29.14,11.76a38.6,38.6,0,0,1-20.39-5.39A35.6,35.6,0,0,1,237,167.27q-4.84-10.08-4.85-23.59,0-20.94,10.47-32.62t29.06-11.68q18,0,28.56,12T310.86,143.68Zm-65.24,0q0,16.4,6.56,25t19.3,8.59q12.74,0,19.34-8.55t6.6-25q0-16.34-6.6-24.81t-19.5-8.48q-12.74,0-19.21,8.36T245.62,143.68Z"/><path class="cls-4" d="M372.65,99.38a50.44,50.44,0,0,1,10.24.94l-1.8,12a44.26,44.26,0,0,0-9.38-1.17q-10.38,0-17.77,8.43t-7.38,21v45.94h-13V100.94h10.7l1.49,15.86h.62a37.69,37.69,0,0,1,11.49-12.89A25.85,25.85,0,0,1,372.65,99.38Z"/><path class="cls-4" d="M508,186.57V130.86q0-10.23-4.37-15.35t-13.6-5.12q-12.1,0-17.89,7t-5.78,21.4v47.82h-13V130.86q0-10.23-4.37-15.35t-13.67-5.12q-12.19,0-17.86,7.31t-5.66,23.94v44.93h-13V100.94h10.55l2.11,11.72h.62a25.55,25.55,0,0,1,10.35-9.77,31.7,31.7,0,0,1,15-3.51q20.07,0,26.25,14.53h.62a27.26,27.26,0,0,1,11.09-10.62A34.4,34.4,0,0,1,492,99.38q14.52,0,21.75,7.46T521,130.71v55.86Z"/><path class="cls-4" d="M600.39,186.57l-2.58-12.19h-.63q-6.4,8-12.77,10.9t-15.9,2.85q-12.74,0-20-6.56t-7.23-18.68q0-25.93,41.49-27.18l14.53-.47v-5.31q0-10.08-4.34-14.89t-13.86-4.8q-10.71,0-24.22,6.56l-4-9.92a60.89,60.89,0,0,1,13.87-5.39,60.21,60.21,0,0,1,15.12-1.95q15.3,0,22.69,6.79t7.39,21.8v58.44Zm-29.3-9.14q12.1,0,19-6.64t6.92-18.6v-7.73l-13,.54q-15.46.56-22.31,4.81t-6.83,13.24q0,7,4.26,10.7T571.09,177.43Z"/><path class="cls-4" d="M664.37,177.43a45.94,45.94,0,0,0,11.72-1.57v9.93a24.37,24.37,0,0,1-6.21,1.68,47,47,0,0,1-7.38.66q-24.86,0-24.85-26.17V111H625.39v-6.25l12.26-5.39,5.47-18.28h7.5v19.84h24.84V111H650.62v50.39q0,7.74,3.67,11.88T664.37,177.43Z"/><path class="cls-4" d="M692.11,77.74c0-3,.72-5.14,2.18-6.52a8.08,8.08,0,0,1,10.86,0q2.26,2.11,2.27,6.49t-2.27,6.52a7.54,7.54,0,0,1-5.39,2.15,7.46,7.46,0,0,1-5.47-2.15C692.83,82.83,692.11,80.66,692.11,77.74Zm14.06,108.83h-13V100.94h13Z"/><path class="cls-4" d="M767.89,188.13q-18.6,0-28.79-11.45T728.9,144.3q0-21.48,10.35-33.2t29.5-11.72a58.26,58.26,0,0,1,12.34,1.33,41,41,0,0,1,9.69,3.12l-4,11a59.92,59.92,0,0,0-9.37-2.85,41.65,41.65,0,0,0-9-1.14q-26.08,0-26.09,33.28,0,15.8,6.37,24.22t18.86,8.44a57.57,57.57,0,0,0,22-4.61v11.49Q780.94,188.12,767.89,188.13Z"/><circle class="cls-3" cx="699.82" cy="77.94" r="9.41"/></svg>